<?xml version="1.0" encoding="utf-8"?>
<!-- Generator: Adobe Illustrator 24.1.0, SVG Export Plug-In . SVG Version: 6.00 Build 0)  -->
<svg version="1.1" id="Layer_1" xmlns="http://www.w3.org/2000/svg" xmlns:xlink="http://www.w3.org/1999/xlink" x="0px" y="0px"
	 viewBox="0 0 959.8 540" style="enable-background:new 0 0 959.8 540;" xml:space="preserve">
<style type="text/css">
	.st0{fill:none;}
	.st1{fill:#005E85;}
	.st2{clip-path:url(#SVGID_2_);}
	.st3{fill:url(#SVGID_3_);}
	.st4{opacity:0.5;enable-background:new    ;}
	.st5{fill:none;stroke:#F78D2B;stroke-miterlimit:10;}
	.st6{fill:#FFFFFF;}
	.st7{fill:#00B1E0;}
	.st8{fill:#F78D2A;}
</style>
<pattern  y="540" width="134" height="134" patternUnits="userSpaceOnUse" id="New_Pattern_Swatch_1" viewBox="0 -134 134 134" style="overflow:visible;">
	<g>
		<rect y="-134" class="st0" width="134" height="134"/>
		<rect y="-134" class="st0" width="134" height="134"/>
		<rect y="-134" class="st1" width="134" height="134"/>
	</g>
</pattern>
<g>
	<defs>
		<rect id="SVGID_1_" width="960" height="540"/>
	</defs>
	<clipPath id="SVGID_2_">
		<use xlink:href="#SVGID_1_"  style="overflow:visible;"/>
	</clipPath>
	<g class="st2">
		<pattern  id="SVGID_3_" xlink:href="#New_Pattern_Swatch_1" patternTransform="matrix(1.19 0 0 -0.86 3231.6804 -12980.4697)">
		</pattern>
		<rect class="st3" width="960" height="540"/>
		<path class="st4" d="M794.7,230.1L525.3-39.3L-17-39l-82.2,163.2l467,467L498,591l296.7-296.7
			C812.4,276.6,812.4,247.8,794.7,230.1C794.7,230.1,794.7,230.1,794.7,230.1z"/>
		<path class="st5" d="M753-55l184.5,184.5c14.1,14.1,14.1,36.9,0,50.9c0,0,0,0,0,0l-394,394"/>
	</g>
</g>
<g id="copy">
	<g id="logo">
		<path class="st6" d="M480.2,204.2c-1.2,0.1-2.7,0.1-6,0.1h-10.5v-15.3H476c2.1,0,4.1,0.2,6.2,0.6h0.2c0.2,0.1,6,1.3,6,7.6
			C488.3,201.5,485.6,203.9,480.2,204.2 M463.7,168.1h12.6c3.2,0,6.3,0,8.2,1.4c1.3,1,2,2.6,1.9,4.2c0.1,1.7-0.7,3.4-2,4.6
			c-2,1.7-5.4,1.7-9,1.7h-11.8V168.1z M513.7,159H505l-11.5,26.9c-0.7-0.6-1.4-1.1-2.1-1.6c3.3-2.5,5.1-6.4,5-10.4
			c0.1-4.2-1.7-8.1-4.8-10.9c-4.5-3.9-10.3-3.9-14.1-3.9H454v29.5L440.7,159h-8.7l-23.3,54.4h11.2l16.5-39.7l17.5,39.7h17.6
			c8.1,0,10.1,0,12.7-0.4c6.6-1.1,10.1-4.4,12-7.9l0,0v-0.1c0.2-0.4,0.4-0.8,0.6-1.2l1.5-3.2l11.2-26.9l17.5,39.7h11.4L513.7,159z"
			/>
		<polygon class="st7" points="447.3,200.3 434,192.7 434,207.9 		"/>
		<polygon class="st8" points="520.3,200.3 507.2,192.7 507.2,207.9 		"/>
		<path class="st6" d="M337.7,227.1l6,15.4h-1.6l-1.9-4.8h-7l-1.9,4.8h-1.5l6.2-15.4H337.7z M339.8,236.5l-3-7.9l-3.1,7.9H339.8z"/>
		<path class="st6" d="M347.7,227.1l5.1,13.5l5.3-13.5h2.1v15.4h-1.5v-13.3l0,0l-5.2,13.3h-1.4l-5.1-13.3l0,0v13.3h-1.5v-15.4H347.7
			z"/>
		<path class="st6" d="M373.4,227.1v1.2h-9.2v5.6h8.6v1.2h-8.6v6.1h9.3v1.2h-10.7v-15.4H373.4z"/>
		<path class="st6" d="M382.6,227.1c0.6,0,1.2,0.1,1.8,0.2c0.5,0.1,1,0.4,1.5,0.7c0.4,0.3,0.8,0.8,1,1.2c0.3,0.6,0.4,1.2,0.4,1.8
			c0,0.9-0.2,1.8-0.8,2.5c-0.5,0.7-1.3,1.2-2.2,1.4l0,0c0.4,0.1,0.9,0.2,1.2,0.4c0.3,0.2,0.6,0.4,0.8,0.8c0.2,0.3,0.4,0.6,0.5,1
			c0.1,0.4,0.2,0.8,0.2,1.3c0,0.3,0,0.6,0,0.9s0,0.8,0.1,1.1c0,0.4,0.1,0.7,0.2,1.1c0.1,0.3,0.2,0.6,0.4,0.8h-1.6
			c-0.1-0.2-0.2-0.3-0.2-0.5c-0.1-0.2-0.1-0.4-0.1-0.6c0-0.2,0-0.4,0-0.7s0-0.4,0-0.6c0-0.5-0.1-1.1-0.1-1.6c-0.1-0.5-0.2-1-0.4-1.4
			c-0.2-0.4-0.5-0.8-0.9-1c-0.5-0.3-1.1-0.4-1.6-0.3h-5.5v6.8h-1.5v-15.3H382.6z M382.5,234.4c0.4,0,0.9-0.1,1.3-0.2
			c0.4-0.1,0.7-0.3,1-0.6c0.7-0.5,1-1.4,1-2.2c0-0.8-0.3-1.6-0.8-2.2c-0.7-0.6-1.6-0.9-2.5-0.8h-5.5v6.1L382.5,234.4z"/>
		<path class="st6" d="M391.5,227.1v15.4h-1.5v-15.4H391.5z"/>
		<path class="st6" d="M405.4,230.2c-0.3-0.5-0.7-0.9-1.1-1.2c-0.4-0.3-0.9-0.6-1.4-0.7c-0.5-0.2-1.1-0.3-1.6-0.2
			c-0.9,0-1.8,0.2-2.6,0.6c-0.7,0.4-1.3,0.9-1.8,1.5c-0.5,0.7-0.8,1.4-1,2.2c-0.5,1.6-0.5,3.3,0,4.9c0.2,0.8,0.5,1.5,1,2.2
			c0.5,0.6,1.1,1.2,1.8,1.5c0.8,0.4,1.7,0.6,2.6,0.6c1.3,0,2.5-0.5,3.4-1.4c0.4-0.5,0.8-1,1-1.6c0.3-0.6,0.4-1.3,0.5-1.9h1.5
			c-0.1,0.9-0.3,1.7-0.7,2.6c-0.3,0.7-0.8,1.4-1.3,1.9c-0.5,0.5-1.2,1-1.9,1.2c-0.8,0.3-1.6,0.4-2.5,0.4c-1.1,0-2.2-0.2-3.2-0.7
			c-0.9-0.4-1.7-1-2.3-1.8c-0.6-0.8-1.1-1.6-1.4-2.5c-0.6-2-0.6-4.1,0-6.1c0.3-0.9,0.7-1.8,1.4-2.6c0.6-0.7,1.4-1.3,2.3-1.8
			c1-0.5,2.1-0.7,3.2-0.7c0.7,0,1.4,0.1,2.1,0.3c0.7,0.2,1.3,0.6,1.9,1c0.6,0.4,1,1,1.4,1.6c0.4,0.7,0.6,1.4,0.7,2.1H406
			C405.9,231.2,405.7,230.7,405.4,230.2z"/>
		<path class="st6" d="M416,227.1l6,15.4h-1.6l-1.9-4.8h-7l-1.9,4.8h-1.5l6.2-15.4H416z M418.1,236.5l-3-7.9l-3.1,7.9H418.1z"/>
		<path class="st6" d="M425.1,227.1l9,13l0,0v-13h1.5v15.4h-1.6l-9-13h0v13h-1.5v-15.4H425.1z"/>
		<path class="st6" d="M445.8,227.1c0.7,0,1.3,0.1,2,0.2c0.6,0.1,1.1,0.3,1.5,0.6c0.4,0.3,0.8,0.7,1,1.2c0.3,0.6,0.4,1.2,0.4,1.8
			c0,0.7-0.2,1.4-0.5,1.9c-0.4,0.6-0.9,1-1.6,1.3c0.9,0.2,1.6,0.7,2.1,1.4c0.8,1.4,0.9,3,0.2,4.5c-0.3,0.6-0.7,1-1.2,1.4
			c-0.5,0.4-1.1,0.6-1.7,0.8c-0.7,0.2-1.3,0.3-2,0.3h-7.5v-15.4H445.8z M445.4,233.3c0.5,0,1-0.1,1.5-0.4c0.4-0.3,0.6-0.9,0.6-1.4
			c0-0.3-0.1-0.6-0.2-0.9c-0.1-0.2-0.3-0.4-0.5-0.5c-0.2-0.1-0.5-0.2-0.7-0.3c-0.3-0.1-0.6-0.1-0.9-0.1H442v3.6L445.4,233.3z
			 M445.6,239.9c0.3,0,0.6,0,1-0.1c0.3-0.1,0.6-0.2,0.8-0.3c0.2-0.2,0.4-0.4,0.5-0.6c0.1-0.3,0.2-0.7,0.2-1c0.1-0.6-0.2-1.3-0.7-1.7
			c-0.5-0.4-1.1-0.5-1.8-0.5H442v4.2L445.6,239.9z"/>
		<path class="st6" d="M461,227.1l5.8,15.4h-3.5l-1.2-3.4h-5.8l-1.2,3.4h-3.4l5.8-15.4H461z M461.2,236.6l-1.9-5.6l0,0l-2,5.6H461.2
			z"/>
		<path class="st6" d="M476.4,227.1c0.6,0,1.3,0.1,1.9,0.3c0.5,0.2,1,0.5,1.4,0.9c0.4,0.4,0.7,0.8,0.9,1.4c0.2,0.5,0.3,1.1,0.3,1.6
			c0,0.8-0.2,1.6-0.6,2.4c-0.4,0.7-1.1,1.2-1.9,1.5v0.1c0.4,0.1,0.7,0.3,1,0.5c0.3,0.2,0.5,0.5,0.7,0.8c0.2,0.3,0.3,0.7,0.4,1.1
			c0.1,0.4,0.1,0.8,0.2,1.2c0,0.2,0,0.5,0,0.9s0,0.7,0.1,1c0,0.3,0.1,0.7,0.2,1c0.1,0.3,0.2,0.6,0.4,0.8h-3.4
			c-0.2-0.6-0.3-1.2-0.4-1.8c0-0.7-0.1-1.3-0.2-1.9c-0.1-0.7-0.3-1.3-0.7-1.8c-0.5-0.4-1.2-0.6-1.8-0.6h-3.4v6H468v-15.4H476.4z
			 M475.2,234.1c0.6,0,1.2-0.1,1.7-0.5c0.4-0.4,0.6-1.1,0.6-1.7c0.1-0.6-0.2-1.2-0.6-1.6c-0.5-0.4-1.1-0.6-1.7-0.5h-3.7v4.3
			L475.2,234.1z"/>
		<path class="st6" d="M491.3,227.1l6,15.4h-1.6l-1.9-4.8h-7l-1.8,4.8h-1.6l6.2-15.4H491.3z M493.4,236.5l-3-7.9l-3.1,7.9H493.4z"/>
		<path class="st6" d="M499.8,239.4c0.2,0.5,0.6,1,1.1,1.3c0.5,0.3,1,0.6,1.6,0.7c0.7,0.1,1.3,0.2,2,0.2c0.4,0,0.9-0.1,1.3-0.2
			c0.5-0.1,0.9-0.3,1.3-0.6c0.4-0.3,0.7-0.6,1-1c0.3-0.4,0.4-0.9,0.4-1.4c0-0.4-0.1-0.8-0.3-1.1c-0.2-0.3-0.5-0.6-0.8-0.8
			c-0.3-0.2-0.6-0.4-1-0.5c-0.4-0.1-0.7-0.2-1.1-0.3l-3.4-0.8c-0.4-0.1-0.9-0.3-1.3-0.4c-0.4-0.2-0.8-0.4-1.1-0.7
			c-0.3-0.3-0.6-0.7-0.8-1.1c-0.2-0.5-0.3-1-0.3-1.5c0-0.4,0.1-0.9,0.2-1.3c0.2-0.5,0.4-1,0.8-1.4c0.5-0.5,1-0.9,1.6-1.1
			c0.8-0.3,1.7-0.5,2.6-0.5c0.7,0,1.5,0.1,2.2,0.3c0.7,0.2,1.3,0.5,1.8,0.9c1.1,0.8,1.7,2.2,1.7,3.6H508c0-0.5-0.2-1.1-0.4-1.5
			c-0.2-0.4-0.6-0.8-0.9-1.1c-0.4-0.3-0.8-0.5-1.3-0.7c-0.5-0.2-1-0.2-1.6-0.2c-0.5,0-1,0.1-1.5,0.2c-0.4,0.1-0.9,0.3-1.2,0.5
			c-0.4,0.2-0.6,0.6-0.9,0.9c-0.2,0.4-0.3,0.9-0.3,1.4c0,0.3,0.1,0.6,0.2,0.9c0.1,0.3,0.3,0.5,0.5,0.7c0.2,0.2,0.5,0.3,0.7,0.5
			c0.3,0.1,0.6,0.2,0.9,0.3l3.8,0.9c0.5,0.1,1,0.3,1.5,0.5c0.5,0.2,0.9,0.5,1.3,0.8c0.4,0.3,0.7,0.7,0.9,1.1
			c0.2,0.5,0.3,1.1,0.3,1.6c0,0.2,0,0.4,0,0.7c0,0.3-0.1,0.6-0.3,0.9c-0.2,0.4-0.3,0.7-0.6,1c-0.3,0.4-0.6,0.7-1,0.9
			c-0.5,0.3-1.1,0.5-1.6,0.6c-0.8,0.2-1.5,0.3-2.3,0.2c-0.9,0-1.7-0.1-2.5-0.3c-0.7-0.2-1.4-0.5-2-1c-0.6-0.4-1-1-1.3-1.7
			c-0.3-0.8-0.4-1.6-0.4-2.4h1.5C499.4,238.1,499.5,238.8,499.8,239.4z"/>
		<path class="st6" d="M513.3,239.4c0.2,0.5,0.6,1,1.1,1.3c0.5,0.3,1,0.6,1.6,0.7c0.7,0.1,1.3,0.2,2,0.2c0.4,0,0.9-0.1,1.3-0.2
			c0.5-0.1,0.9-0.3,1.3-0.6c0.4-0.3,0.7-0.6,1-1c0.3-0.4,0.4-0.9,0.4-1.4c0-0.4-0.1-0.8-0.3-1.1c-0.2-0.3-0.5-0.6-0.8-0.8
			c-0.3-0.2-0.6-0.4-1-0.5c-0.4-0.1-0.7-0.2-1.1-0.3l-3.4-0.8c-0.4-0.1-0.9-0.3-1.3-0.4c-0.4-0.2-0.8-0.4-1.1-0.7
			c-0.3-0.3-0.6-0.7-0.8-1.1c-0.2-0.5-0.3-1-0.3-1.5c0-0.4,0.1-0.9,0.2-1.3c0.2-0.5,0.4-1,0.8-1.4c0.5-0.5,1-0.9,1.6-1.1
			c0.8-0.3,1.7-0.5,2.7-0.5c0.7,0,1.5,0.1,2.2,0.3c0.7,0.2,1.3,0.5,1.8,0.9c1.1,0.8,1.7,2.2,1.7,3.6h-1.5c0-0.5-0.2-1.1-0.4-1.5
			c-0.2-0.4-0.6-0.8-0.9-1.1c-0.4-0.3-0.8-0.5-1.3-0.7c-0.5-0.2-1-0.2-1.6-0.2c-0.5,0-1,0.1-1.5,0.2c-0.4,0.1-0.8,0.3-1.2,0.5
			c-0.4,0.2-0.6,0.6-0.8,0.9c-0.2,0.4-0.3,0.9-0.3,1.4c0,0.3,0.1,0.6,0.2,0.9c0.1,0.3,0.3,0.5,0.5,0.7c0.2,0.2,0.5,0.3,0.7,0.5
			c0.3,0.1,0.6,0.2,0.9,0.3l3.8,0.9c0.5,0.1,1,0.3,1.5,0.5c0.5,0.2,0.9,0.5,1.3,0.8c0.4,0.3,0.7,0.7,0.9,1.1
			c0.2,0.5,0.3,1.1,0.3,1.6c0,0.2,0,0.4,0,0.7c0,0.3-0.1,0.6-0.3,0.9c-0.2,0.4-0.3,0.7-0.6,1c-0.3,0.4-0.6,0.7-1,0.9
			c-0.5,0.3-1.1,0.5-1.6,0.6c-0.8,0.2-1.5,0.3-2.3,0.2c-0.9,0-1.7-0.1-2.5-0.3c-0.7-0.2-1.4-0.5-2-1c-0.6-0.4-1-1-1.3-1.7
			c-0.3-0.8-0.4-1.6-0.4-2.4h1.4C512.9,238.1,513.1,238.8,513.3,239.4z"/>
		<path class="st6" d="M525.5,231.8c0.3-0.9,0.7-1.8,1.4-2.6c0.6-0.7,1.4-1.3,2.3-1.8c2-0.9,4.3-0.9,6.3,0c0.9,0.4,1.6,1,2.3,1.8
			c0.6,0.8,1.1,1.6,1.4,2.6c0.6,2,0.6,4.1,0,6.1c-0.3,0.9-0.8,1.8-1.4,2.5c-0.6,0.7-1.4,1.3-2.3,1.8c-2,0.9-4.3,0.9-6.3,0
			c-0.9-0.4-1.7-1-2.3-1.8c-0.6-0.8-1.1-1.6-1.4-2.5C524.9,235.9,524.9,233.8,525.5,231.8z M526.8,237.3c0.2,0.8,0.5,1.5,1,2.2
			c0.5,0.6,1.1,1.2,1.8,1.5c1.7,0.8,3.6,0.8,5.2,0c0.7-0.4,1.3-0.9,1.8-1.5c0.5-0.7,0.8-1.4,1-2.2c0.4-1.6,0.4-3.3,0-4.9
			c-0.2-0.8-0.5-1.5-1-2.2c-0.5-0.6-1.1-1.2-1.8-1.5c-1.7-0.8-3.6-0.8-5.2,0c-0.7,0.4-1.3,0.9-1.8,1.5c-0.5,0.7-0.8,1.4-1,2.2
			C526.4,234,526.4,235.7,526.8,237.3z"/>
		<path class="st6" d="M552.4,230.2c-0.3-0.5-0.7-0.9-1.1-1.2c-0.4-0.3-0.9-0.6-1.4-0.7c-0.5-0.2-1.1-0.3-1.6-0.2
			c-0.9,0-1.8,0.2-2.6,0.6c-0.7,0.4-1.3,0.9-1.8,1.5c-0.5,0.7-0.8,1.4-1,2.2c-0.5,1.6-0.5,3.3,0,4.9c0.2,0.8,0.5,1.5,1,2.2
			c0.5,0.6,1.1,1.2,1.8,1.5c0.8,0.4,1.7,0.6,2.6,0.6c1.3,0,2.5-0.5,3.4-1.4c0.4-0.5,0.8-1,1-1.6c0.3-0.6,0.4-1.3,0.5-1.9h1.5
			c-0.1,0.9-0.3,1.7-0.7,2.6c-0.3,0.7-0.8,1.4-1.3,1.9c-0.6,0.5-1.2,1-1.9,1.2c-0.8,0.3-1.6,0.4-2.5,0.4c-1.1,0-2.2-0.2-3.2-0.7
			c-0.9-0.4-1.7-1-2.3-1.8c-0.6-0.8-1.1-1.6-1.4-2.5c-0.6-2-0.6-4.1,0-6.1c0.3-0.9,0.7-1.8,1.4-2.6c0.6-0.7,1.4-1.3,2.3-1.8
			c1-0.5,2.1-0.7,3.2-0.7c0.7,0,1.4,0.1,2.1,0.3c0.7,0.2,1.3,0.6,1.9,1c0.6,0.4,1,1,1.4,1.6c0.4,0.7,0.6,1.4,0.7,2.1h-1.5
			C553,231.2,552.7,230.7,552.4,230.2z"/>
		<path class="st6" d="M558.6,227.1v15.4h-1.5v-15.4H558.6z"/>
		<path class="st6" d="M567.9,227.1l6,15.4h-1.6l-1.9-4.8h-7l-1.8,4.8h-1.5l6.2-15.4H567.9z M570,236.5l-3-7.9l-3,7.9H570z"/>
		<path class="st6" d="M584.4,227.1v1.2h-5.4v14.1h-1.5v-14.1h-5.3v-1.2H584.4z"/>
		<path class="st6" d="M587.4,227.1v15.4H586v-15.4H587.4z"/>
		<path class="st6" d="M590.3,231.8c0.3-0.9,0.7-1.8,1.4-2.6c0.6-0.7,1.4-1.3,2.3-1.8c1-0.5,2.1-0.7,3.2-0.7c1.1,0,2.2,0.2,3.2,0.7
			c0.9,0.4,1.6,1,2.3,1.8c0.6,0.8,1.1,1.6,1.4,2.6c0.6,2,0.6,4.1,0,6.1c-0.3,0.9-0.7,1.8-1.4,2.5c-0.6,0.7-1.4,1.3-2.3,1.8
			c-1,0.5-2.1,0.7-3.2,0.7c-1.1,0-2.2-0.2-3.2-0.7c-0.9-0.4-1.7-1-2.3-1.8c-0.6-0.7-1.1-1.6-1.4-2.5
			C589.7,235.9,589.7,233.8,590.3,231.8z M591.6,237.3c0.2,0.8,0.5,1.5,1,2.2c0.5,0.6,1.1,1.2,1.8,1.5c0.8,0.4,1.7,0.6,2.6,0.6
			c0.9,0,1.8-0.2,2.6-0.6c0.7-0.4,1.3-0.9,1.8-1.5c0.5-0.7,0.8-1.4,1-2.2c0.4-1.6,0.4-3.3,0-4.9c-0.2-0.8-0.5-1.5-1-2.2
			c-0.5-0.6-1.1-1.2-1.8-1.5c-0.8-0.4-1.7-0.6-2.6-0.6c-0.9,0-1.8,0.2-2.6,0.6c-0.7,0.4-1.3,0.9-1.8,1.5c-0.5,0.7-0.8,1.4-1,2.2
			C591.2,234,591.2,235.7,591.6,237.3z"/>
		<path class="st6" d="M608.2,227.1l9,13l0,0v-13h1.5v15.4H617l-9-13l0,0v13h-1.5v-15.4H608.2z"/>
		<path class="st6" d="M625.7,231.4h0.6v-2.6c0-0.1,0-0.3,0-0.5s0-0.4,0-0.5v-0.1l1.2,3.6h0.6l1.2-3.6v0.6c0,0.2,0,0.4,0,0.4v2.6
			h0.6v-4.3h-0.8l-1.2,3.6l-1.2-3.6h-0.8L625.7,231.4z M621.7,227.1v0.5h1.5v3.8h0.6v-3.8h1.5v-0.5H621.7z"/>
	</g>
</g>
</svg>
